<svg width="822" height="159" viewBox="0 0 822 159" fill="none" xmlns="http://www.w3.org/2000/svg">
<path fill-rule="evenodd" clip-rule="evenodd" d="M0 43H25V68H12C5.37258 68 0 62.6274 0 56V43ZM54 43H29V68H54V43ZM54 72H29V97H54V72ZM73 43H58V68H83V53C83 47.4772 78.5229 43 73 43ZM58 101H83V116C83 121.523 78.5229 126 73 126H58V101ZM54 101H29V116C29 121.523 33.4772 126 39 126H54V101Z" fill="#262C3D"/>
<path d="M156.8 55.44V126H133.28V55.44H113.96V35.52H176.12V55.44H156.8ZM181.963 64.44H203.683V74.52C206.003 70.84 208.843 68.04 212.203 66.12C215.563 64.12 219.483 63.12 223.963 63.12C224.523 63.12 225.123 63.12 225.763 63.12C226.483 63.12 227.283 63.2 228.163 63.36V84.12C225.283 82.68 222.163 81.96 218.803 81.96C213.763 81.96 209.963 83.48 207.403 86.52C204.923 89.48 203.683 93.84 203.683 99.6V126H181.963V64.44ZM259.582 64.44V99.12C259.582 106.72 263.262 110.52 270.622 110.52C277.982 110.52 281.662 106.72 281.662 99.12V64.44H303.382V103.32C303.382 111.64 300.622 117.88 295.102 122.04C289.662 126.2 281.502 128.28 270.622 128.28C259.742 128.28 251.542 126.2 246.022 122.04C240.582 117.88 237.862 111.64 237.862 103.32V64.44H259.582ZM363.135 86.28C362.415 83.24 360.935 80.8 358.695 78.96C356.455 77.12 353.735 76.2 350.535 76.2C347.175 76.2 344.415 77.08 342.255 78.84C340.175 80.6 338.855 83.08 338.295 86.28H363.135ZM337.695 98.88C337.695 108.24 342.095 112.92 350.895 112.92C355.615 112.92 359.175 111 361.575 107.16H382.575C378.335 121.24 367.735 128.28 350.775 128.28C345.575 128.28 340.815 127.52 336.495 126C332.175 124.4 328.455 122.16 325.335 119.28C322.295 116.4 319.935 112.96 318.255 108.96C316.575 104.96 315.735 100.48 315.735 95.52C315.735 90.4 316.535 85.8 318.135 81.72C319.735 77.56 322.015 74.04 324.975 71.16C327.935 68.28 331.495 66.08 335.655 64.56C339.895 62.96 344.655 62.16 349.935 62.16C355.135 62.16 359.815 62.96 363.975 64.56C368.135 66.08 371.655 68.32 374.535 71.28C377.415 74.24 379.615 77.88 381.135 82.2C382.655 86.44 383.415 91.24 383.415 96.6V98.88H337.695Z" fill="#46BDE1"/>
<path d="M466.086 40.3945V56.5664C458.195 49.9648 450.031 46.6641 441.594 46.6641C432.297 46.6641 424.465 50.0039 418.098 56.6836C411.691 63.3242 408.488 71.4492 408.488 81.0586C408.488 90.5508 411.691 98.5586 418.098 105.082C424.504 111.605 432.355 114.867 441.652 114.867C446.457 114.867 450.539 114.086 453.898 112.523C455.773 111.742 457.707 110.688 459.699 109.359C461.73 108.031 463.859 106.43 466.086 104.555V121.02C458.273 125.434 450.07 127.641 441.477 127.641C428.547 127.641 417.512 123.129 408.371 114.105C399.27 105.004 394.719 94.0273 394.719 81.1758C394.719 69.6523 398.527 59.3789 406.145 50.3555C415.52 39.3008 427.648 33.7734 442.531 33.7734C450.656 33.7734 458.508 35.9805 466.086 40.3945ZM478.156 97.0547C478.156 88.8125 481.105 81.8008 487.004 76.0195C492.902 70.2383 500.09 67.3477 508.566 67.3477C517.082 67.3477 524.309 70.2578 530.246 76.0781C536.105 81.8984 539.035 89.0469 539.035 97.5234C539.035 106.078 536.086 113.246 530.188 119.027C524.25 124.77 516.965 127.641 508.332 127.641C499.777 127.641 492.609 124.711 486.828 118.852C481.047 113.07 478.156 105.805 478.156 97.0547ZM491.633 97.2891C491.633 102.992 493.156 107.504 496.203 110.824C499.328 114.184 503.449 115.863 508.566 115.863C513.723 115.863 517.844 114.203 520.93 110.883C524.016 107.562 525.559 103.129 525.559 97.582C525.559 92.0352 524.016 87.6016 520.93 84.2812C517.805 80.9219 513.684 79.2422 508.566 79.2422C503.527 79.2422 499.445 80.9219 496.32 84.2812C493.195 87.6406 491.633 91.9766 491.633 97.2891ZM566.223 68.9297V101.684C566.223 111.137 569.953 115.863 577.414 115.863C584.875 115.863 588.605 111.137 588.605 101.684V68.9297H601.789V101.977C601.789 106.547 601.223 110.492 600.09 113.812C598.996 116.781 597.102 119.457 594.406 121.84C589.953 125.707 584.289 127.641 577.414 127.641C570.578 127.641 564.934 125.707 560.48 121.84C557.746 119.457 555.812 116.781 554.68 113.812C553.586 111.156 553.039 107.211 553.039 101.977V68.9297H566.223ZM618.43 68.9297H631.672V74.2031C636.281 69.6328 641.477 67.3477 647.258 67.3477C653.898 67.3477 659.074 69.4375 662.785 73.6172C665.988 77.1719 667.59 82.9727 667.59 91.0195V126H654.348V94.125C654.348 88.5 653.566 84.6133 652.004 82.4648C650.48 80.2773 647.707 79.1836 643.684 79.1836C639.309 79.1836 636.203 80.6289 634.367 83.5195C632.57 86.3711 631.672 91.3516 631.672 98.4609V126H618.43V68.9297ZM717.453 78.6562L706.555 84.457C704.836 80.9414 702.707 79.1836 700.168 79.1836C698.957 79.1836 697.922 79.5938 697.062 80.4141C696.203 81.1953 695.773 82.2109 695.773 83.4609C695.773 85.6484 698.312 87.8164 703.391 89.9648C710.383 92.9727 715.09 95.7461 717.512 98.2852C719.934 100.824 721.145 104.242 721.145 108.539C721.145 114.047 719.113 118.656 715.051 122.367C711.105 125.883 706.34 127.641 700.754 127.641C691.184 127.641 684.406 122.973 680.422 113.637L691.672 108.422C693.234 111.156 694.426 112.895 695.246 113.637C696.848 115.121 698.762 115.863 700.988 115.863C705.441 115.863 707.668 113.832 707.668 109.77C707.668 107.426 705.949 105.238 702.512 103.207C701.184 102.543 699.855 101.898 698.527 101.273C697.199 100.648 695.852 100.004 694.484 99.3398C690.656 97.4648 687.961 95.5898 686.398 93.7148C684.406 91.332 683.41 88.2656 683.41 84.5156C683.41 79.5547 685.109 75.4531 688.508 72.2109C691.984 68.9688 696.203 67.3477 701.164 67.3477C708.469 67.3477 713.898 71.1172 717.453 78.6562ZM785.012 100.57H744.113C744.465 105.258 745.988 108.988 748.684 111.762C751.379 114.496 754.836 115.863 759.055 115.863C762.336 115.863 765.051 115.082 767.199 113.52C769.309 111.957 771.711 109.066 774.406 104.848L785.539 111.059C783.82 113.988 782.004 116.508 780.09 118.617C778.176 120.688 776.125 122.406 773.938 123.773C771.75 125.102 769.387 126.078 766.848 126.703C764.309 127.328 761.555 127.641 758.586 127.641C750.07 127.641 743.234 124.906 738.078 119.438C732.922 113.93 730.344 106.625 730.344 97.5234C730.344 88.5 732.844 81.1953 737.844 75.6094C742.883 70.1016 749.562 67.3477 757.883 67.3477C766.281 67.3477 772.922 70.0234 777.805 75.375C782.648 80.6875 785.07 88.0508 785.07 97.4648L785.012 100.57ZM771.477 89.7891C769.641 82.7578 765.207 79.2422 758.176 79.2422C756.574 79.2422 755.07 79.4961 753.664 80.0039C752.258 80.4727 750.969 81.1758 749.797 82.1133C748.664 83.0117 747.688 84.1055 746.867 85.3945C746.047 86.6836 745.422 88.1484 744.992 89.7891H771.477ZM812.668 27.0352V126H799.484V27.0352H812.668Z" fill="#262C3D"/>
</svg>
